<svg width="47" height="47" viewBox="0 0 47 47" fill="none" xmlns="http://www.w3.org/2000/svg">
<ellipse cx="22.6706" cy="24.3295" rx="22.6706" ry="22.6705" fill="url(#paint0_linear_251_29)"/>
<path d="M29.1594 20.2418C28.7034 19.9761 28.1113 19.9761 27.6095 20.2418L24.0511 22.2861L21.6348 23.6185L18.0763 25.6616C17.6203 25.9285 17.0282 25.9285 16.5264 25.6616L13.6985 24.0622C13.2424 23.7965 12.9235 23.3083 12.9235 22.7743V19.6201C12.9235 19.0874 13.1967 18.5992 13.6985 18.3322L16.4795 16.7773C16.9368 16.5104 17.53 16.5104 18.0319 16.7773L20.8128 18.3322C21.2701 18.5992 21.589 19.0874 21.589 19.6201V21.6644L24.0054 20.2863V18.2432C24.008 17.9779 23.937 17.717 23.8002 17.4896C23.6634 17.2622 23.4661 17.0772 23.2304 16.9553L18.0763 14.0236C17.6203 13.7566 17.0282 13.7566 16.5264 14.0236L11.2809 16.9553C11.0452 17.0772 10.8479 17.2622 10.7111 17.4896C10.5743 17.717 10.5033 17.9779 10.5059 18.2432V24.1512C10.5059 24.6851 10.7791 25.1734 11.2809 25.4403L16.5264 28.3721C16.9825 28.6378 17.5758 28.6378 18.0763 28.3721L21.6348 26.3723L24.0511 24.9954L27.6095 22.9968C28.0656 22.7298 28.6576 22.7298 29.1594 22.9968L31.9416 24.5517C32.399 24.8174 32.7166 25.3056 32.7166 25.8396V28.9938C32.7166 29.5265 32.4447 30.0147 31.9416 30.2817L29.1607 31.881C28.7034 32.148 28.1101 32.148 27.6095 31.881L24.8273 30.3262C24.37 30.0592 24.0511 29.571 24.0511 29.0383V26.994L21.6348 28.3721V30.4152C21.6348 30.9479 21.9079 31.4373 22.4097 31.703L27.6552 34.6348C28.1113 34.9018 28.7034 34.9018 29.2052 34.6348L34.4507 31.703C34.9068 31.4373 35.2257 30.9491 35.2257 30.4152V24.5072C35.2283 24.2418 35.1573 23.9809 35.0205 23.7535C34.8836 23.5261 34.6864 23.3412 34.4507 23.2193L29.1607 20.2418H29.1594Z" fill="white"/>
<defs>
<linearGradient id="paint0_linear_251_29" x1="22.6706" y1="1.65901" x2="22.6706" y2="47" gradientUnits="userSpaceOnUse">
<stop stop-color="#8949F6"/>
<stop offset="1" stop-color="#7135D6"/>
</linearGradient>
</defs>
</svg>
