<svg width="47" height="47" viewBox="0 0 47 47" fill="none" xmlns="http://www.w3.org/2000/svg">
<g id="Group 1198">
<circle id="Ellipse 318" cx="23.5" cy="23.5" r="23.5" fill="url(#paint0_linear_251_73)"/>
<path id="Vector" fill-rule="evenodd" clip-rule="evenodd" d="M12.7897 29.9574C12.0855 29.5313 11.6545 28.7744 11.6545 27.9593V23.4087C11.6545 22.8685 12.0997 22.4306 12.6461 22.433C12.8204 22.433 12.9923 22.4795 13.143 22.5657L23.5271 28.5531C24.1347 28.9025 24.5092 29.5452 24.5092 30.2416V34.9551C24.5115 35.6025 23.9816 36.1289 23.3269 36.1289C23.1078 36.1289 22.8912 36.0683 22.7051 35.9565L12.7897 29.9574ZM28.2681 21.3198C28.8757 21.6691 29.2478 22.3142 29.2502 23.0082V32.5751C29.2502 32.8568 29.0971 33.1177 28.8474 33.2551L26.5747 34.5196C26.5464 34.5359 26.5158 34.5476 26.4828 34.5569V29.2448C26.4828 28.5578 26.1178 27.9197 25.5195 27.5657L16.4002 22.1721V16.1754C16.4002 15.6351 16.8454 15.1973 17.3918 15.1996C17.5661 15.1996 17.738 15.2462 17.8887 15.3323L28.2681 21.3198ZM32.8136 14.2541C33.4236 14.6034 33.798 15.2485 33.798 15.9448V29.9178C33.7957 30.2043 33.6355 30.4675 33.3812 30.6049L31.2262 31.7553V22.0277C31.2262 21.3407 30.8611 20.705 30.2676 20.351L20.9458 14.8223V9.1353C20.9458 8.96296 20.9929 8.79296 21.0777 8.64391C21.3532 8.17815 21.9585 8.01978 22.4295 8.28993L32.8136 14.2541Z" fill="#00D395"/>
</g>
<defs>
<linearGradient id="paint0_linear_251_73" x1="23.5" y1="0" x2="23.5" y2="47" gradientUnits="userSpaceOnUse">
<stop stop-color="#2A2C37"/>
<stop offset="1" stop-color="#21222D"/>
</linearGradient>
</defs>
</svg>
