<svg width="47" height="47" viewBox="0 0 47 47" fill="none" xmlns="http://www.w3.org/2000/svg">
<g id="Group 1181">
<rect id="Rectangle 85" width="47" height="47" rx="23.5" fill="url(#paint0_linear_251_26)"/>
<path id="Vector" fill-rule="evenodd" clip-rule="evenodd" d="M28.6507 30.8685C27.3664 31.341 26.1749 31.162 25.6452 31.0908C25.3842 31.0564 24.943 30.9741 24.4723 30.8752L23.6914 33.8401L21.8982 33.3509L22.6659 30.4338L21.3008 30.0614L20.533 32.9785L18.7398 32.4894L19.5075 29.5722L15.98 28.6095L16.9258 26.5173L17.9982 26.8107C18.3586 26.9086 18.5181 26.9152 18.707 26.8119C18.8959 26.7074 18.9877 26.495 19.0346 26.316L21.0223 18.7631C21.1479 18.2895 21.1435 18.1517 20.9939 17.8504C20.8443 17.548 20.3495 17.379 20.0667 17.3023L19.0303 17.0188L19.5294 15.1245L23.0569 16.0861L23.8268 13.1601L25.6201 13.6492L24.8501 16.5752L26.2153 16.9477L26.9863 14.0217L28.7796 14.5108L27.9998 17.4724C29.3147 17.9215 30.2419 18.4518 30.9376 19.3423C31.8386 20.4929 31.3941 21.9437 31.2761 22.2872C31.1593 22.6296 30.8317 23.2622 30.4156 23.6146C29.9995 23.9681 29.1476 24.2016 29.1476 24.2016C29.1476 24.2016 29.9689 24.6274 30.4582 25.2633C30.9452 25.8991 31.1811 26.8497 30.836 28.0536C30.4931 29.2587 29.9328 30.3949 28.6507 30.8685ZM24.9288 24.5317C24.2623 24.3142 23.5859 24.1298 22.9018 23.9792L21.8709 27.8947C21.8709 27.8947 23.0536 28.2449 23.8661 28.4027C24.6776 28.5595 25.5524 28.5795 26.0242 28.4605C26.4938 28.3416 27.0835 28.1181 27.3194 27.2232C27.5553 26.3272 27.0682 25.7924 26.7766 25.5301C26.4872 25.2677 25.8014 24.8341 24.9288 24.5329V24.5317ZM24.8709 22.5696C25.5316 22.7219 26.2677 22.7586 26.8443 22.614C27.421 22.4695 27.8229 22.1027 27.9812 21.4334C28.1396 20.7642 27.8524 20.0816 27.1753 19.6502C26.4981 19.2189 26.0089 19.0666 25.4497 18.9054C24.8906 18.7442 24.3074 18.6386 24.3074 18.6386L23.3791 22.1627C23.3791 22.1627 24.2113 22.4162 24.8709 22.5696Z" fill="white"/>
</g>
<defs>
<linearGradient id="paint0_linear_251_26" x1="23.5" y1="0" x2="23.5" y2="47" gradientUnits="userSpaceOnUse">
<stop stop-color="#FEC82C"/>
<stop offset="1" stop-color="#FEA736"/>
</linearGradient>
</defs>
</svg>
