<svg width="47" height="47" viewBox="0 0 47 47" fill="none" xmlns="http://www.w3.org/2000/svg">
<g id="Group 1222">
<circle id="Ellipse 320" cx="23.5" cy="23.5" r="23.5" fill="url(#paint0_linear_251_34)"/>
<g id="cardano">
<path id="Shape" fill-rule="evenodd" clip-rule="evenodd" d="M24.7662 12.5064C25.0725 11.9315 24.3687 11.2354 23.7922 11.5355C23.3231 11.722 23.2041 12.3996 23.5691 12.7425C23.9137 13.0997 24.5883 12.9751 24.7662 12.5064ZM18.3488 12.7597C18.3845 12.3787 17.9411 12.0584 17.5909 12.2023C17.1033 12.332 17.0492 13.0983 17.5222 13.2812C17.8792 13.4777 18.3859 13.1733 18.3488 12.7597ZM30.2924 13.2929C29.7451 13.2269 29.6585 12.368 30.1854 12.1951C30.5942 11.9961 30.9691 12.3692 31.0289 12.7559C30.9432 13.086 30.6662 13.3883 30.2924 13.2929ZM20.333 15.6962C20.4231 15.0174 19.5875 14.4669 19.0019 14.8366C18.4536 15.1164 18.3782 15.9514 18.8758 16.3154C19.3904 16.7788 20.3026 16.3817 20.333 15.6962ZM27.9407 15.2287C28.202 14.5567 29.2605 14.5364 29.5579 15.1905C29.8518 15.6996 29.4903 16.3299 28.9666 16.503C28.273 16.6323 27.6141 15.8839 27.9407 15.2287ZM24.1168 15.4182C23.5669 15.4575 23.0398 15.8879 23.0455 16.4655C23.0141 16.9374 23.3519 17.3229 23.7531 17.5195C23.7935 17.5219 23.8344 17.5252 23.8756 17.5284C24.1022 17.5464 24.3375 17.565 24.5414 17.451C25.0684 17.2184 25.3274 16.5205 25.0357 16.0137C24.8793 15.6463 24.4816 15.4912 24.1168 15.4182ZM13.8229 17.3074C14.3578 16.9792 15.0795 17.5781 14.877 18.1581C14.7655 18.6597 14.0899 18.8638 13.7036 18.5435C13.2913 18.2435 13.3567 17.522 13.8229 17.3074ZM34.7757 17.9291C34.8298 17.3572 34.0809 16.9537 33.6271 17.3054C33.1614 17.5909 33.212 18.3527 33.7082 18.5753C34.1587 18.8438 34.8062 18.4505 34.7757 17.9291ZM25.639 18.3442C26.388 18.0756 27.2775 18.397 27.7043 19.0634C28.2674 19.8781 27.9678 21.1187 27.094 21.5862C26.1886 22.1391 24.8666 21.6704 24.5322 20.6613C24.1526 19.7579 24.7056 18.6273 25.639 18.3442ZM23.593 19.218C23.192 18.3706 22.075 18.0426 21.245 18.4336C20.3604 18.8279 19.9534 19.9911 20.4117 20.8475C20.8204 21.7331 22.0119 22.096 22.8565 21.6173C23.7 21.1914 24.0648 20.0429 23.593 19.218ZM16.8453 19.9346C16.9083 19.4009 17.4128 19.0535 17.9218 19.0176C18.4702 19.0836 18.9083 19.5087 18.9679 20.0627C18.932 20.611 18.5074 21.147 17.9251 21.1437C17.2845 21.1988 16.7229 20.5627 16.8453 19.9346ZM31.3822 20.0617C31.4114 19.3076 30.4982 18.7514 29.8406 19.1335C29.1345 19.4658 29.0815 20.5648 29.7617 20.955C30.4166 21.4237 31.4273 20.8606 31.3822 20.0617ZM19.4569 21.949C20.226 21.7378 21.1055 22.0996 21.4827 22.8053C21.896 23.5155 21.7271 24.5022 21.0853 25.0231C20.2622 25.7872 18.7441 25.4804 18.306 24.4376C17.8026 23.4817 18.4141 22.2006 19.4569 21.949ZM29.8191 22.6995C29.4171 22.0196 28.5387 21.7319 27.791 21.9454C26.7404 22.2325 26.184 23.563 26.7369 24.5044C27.193 25.4145 28.4768 25.7201 29.3056 25.138C30.0969 24.6368 30.3506 23.477 29.8191 22.6995ZM14.5099 22.8325C15.1743 22.5816 15.9108 23.3134 15.6416 23.9708C15.4772 24.5698 14.6315 24.7912 14.1946 24.3496C13.6834 23.9349 13.8726 23.0123 14.5099 22.8325ZM33.4667 22.72C32.9022 22.7504 32.4994 23.237 32.5186 23.7864C32.6289 24.0427 32.7629 24.3102 33.0242 24.4427C33.5815 24.7495 34.3699 24.3057 34.3282 23.6527C34.3642 23.1583 33.9217 22.792 33.4667 22.72ZM11.2431 23.1551C11.6428 22.981 12.1372 23.3268 12.046 23.7698C12.0245 24.2715 11.2825 24.4643 11.0099 24.0452C10.769 23.7541 10.9132 23.3052 11.2431 23.1551ZM37.2907 23.417C37.1792 23.0888 36.7276 22.9451 36.4462 23.1451C35.9778 23.3945 36.1614 24.2576 36.7288 24.206C37.133 24.2666 37.4799 23.7755 37.2907 23.417ZM21.6279 25.5525C22.6797 25.2795 23.8103 26.1549 23.8169 27.2358C23.8856 28.3281 22.772 29.2967 21.6953 29.0445C20.8631 28.9107 20.2101 28.1106 20.237 27.2712C20.2348 26.4684 20.8418 25.7223 21.6279 25.5525ZM28.0085 27.2502C28.0254 26.1443 26.8611 25.2532 25.7935 25.5511C25.1606 25.708 24.6246 26.2287 24.4848 26.869C24.2078 27.8298 24.9398 28.9176 25.9319 29.0456C26.9861 29.2583 28.0649 28.3223 28.0085 27.2502ZM17.7621 26.2161C18.5008 26.0903 19.1934 26.9128 18.8938 27.6129C18.6753 28.3589 17.5875 28.5613 17.1066 27.9519C16.5424 27.3667 16.9636 26.2969 17.7621 26.2161ZM31.3946 27.2558C31.4453 26.5423 30.6367 25.9736 29.978 26.2489C29.1819 26.5015 29.0491 27.7129 29.7787 28.1245C30.4229 28.583 31.4211 28.0413 31.3946 27.2558ZM33.3923 29.6675C33.1343 29.1877 33.6028 28.5516 34.1367 28.6405C34.3877 28.6362 34.5674 28.8225 34.73 28.9909L34.7584 29.0203L34.7644 29.0689C34.799 29.3426 34.8385 29.6563 34.6154 29.8631C34.2942 30.2687 33.5667 30.153 33.3923 29.6675ZM14.9255 29.519C15.0377 28.9368 14.3197 28.4424 13.8208 28.7739C13.3456 29.0156 13.3286 29.7707 13.788 30.036C14.216 30.3281 14.8659 30.0338 14.9255 29.519ZM23.6775 29.851C24.3307 29.5633 25.1628 30.1309 25.1009 30.8489C25.1493 31.6423 24.1201 32.1918 23.4815 31.7153C22.7721 31.3062 22.8904 30.1026 23.6775 29.851ZM20.3646 31.7487C20.4152 31.1273 19.6687 30.6227 19.1124 30.9148C18.7204 31.061 18.5607 31.4925 18.5538 31.88C18.6878 32.2355 18.9603 32.6094 19.3781 32.6184C19.8826 32.6938 20.3815 32.2589 20.3646 31.7487ZM28.3599 30.9231C28.932 30.5703 29.7451 31.0771 29.691 31.7416C29.7057 32.4362 28.7868 32.8811 28.2541 32.4248C27.7384 32.0672 27.8014 31.2075 28.3599 30.9231ZM30.4262 33.9567C30.0129 34.0444 29.7133 34.5074 29.9678 34.8917C30.2291 35.3379 30.9915 35.1783 31.0399 34.658C31.1097 34.2736 30.7584 34.0242 30.4262 33.9567ZM17.2021 34.5572C17.3034 34.2527 17.5489 33.95 17.9082 34.0292C18.4318 34.0663 18.5873 34.854 18.1289 35.0968C17.7168 35.3741 17.2386 34.9943 17.2021 34.5572ZM24.4307 34.4771C24.0455 34.2378 23.4611 34.4569 23.3609 34.9075C23.1777 35.3627 23.6176 35.9129 24.1053 35.8559C24.3677 35.8626 24.5704 35.6761 24.728 35.4896C24.7587 35.3638 24.7899 35.2378 24.8248 35.112L24.8227 35.104C24.7578 34.8642 24.6824 34.585 24.4307 34.4771Z" fill="white"/>
</g>
</g>
<defs>
<linearGradient id="paint0_linear_251_34" x1="23.5" y1="0" x2="23.5" y2="47" gradientUnits="userSpaceOnUse">
<stop stop-color="#204AB3"/>
<stop offset="1" stop-color="#3B62BE"/>
</linearGradient>
</defs>
</svg>
