<svg width="47" height="47" viewBox="0 0 47 47" fill="none" xmlns="http://www.w3.org/2000/svg">
<circle cx="23.5" cy="23.5" r="23.5" fill="url(#paint0_linear_251_22)"/>
<path fill-rule="evenodd" clip-rule="evenodd" d="M25.5088 21.3498L24.9544 24.2883L30.2208 25.0229L29.8512 26.4003L24.6772 25.6657C24.3076 26.8594 24.1229 28.145 23.6609 29.2469C23.1989 30.5325 22.737 31.818 22.1826 33.0118C21.4435 34.5728 20.15 35.6748 18.3945 35.9502C17.3782 36.1339 16.2694 36.0421 15.4379 35.3993C15.1607 35.2156 14.8835 34.8483 14.8835 34.5728C14.8835 34.2055 15.0683 33.7464 15.3455 33.5627C15.5303 33.4709 15.9923 33.5627 16.2694 33.6546C16.5466 33.93 16.8238 34.2974 17.0086 34.6647C17.5629 35.3993 18.3021 35.4911 19.0412 34.9401C19.8728 34.2055 20.3347 33.1954 20.6119 32.1853C21.1663 29.9815 21.7206 27.8695 22.1826 25.6657V25.2984L17.2858 24.5637L17.4706 23.1864L22.5522 23.921L23.1989 21.0743L17.9325 20.2479L18.1173 18.7787L23.5685 19.5133C23.7533 18.9623 23.8457 18.5032 24.0305 18.0441C24.4924 16.3912 24.9544 14.7383 26.0631 13.2691C27.1718 11.7999 28.4653 10.8816 30.4056 10.9734C31.2371 10.9734 32.0687 11.2489 32.623 11.8917C32.7154 11.9835 32.9002 12.1672 32.9002 12.3508C32.9002 12.7181 32.9002 13.1773 32.623 13.4527C32.2535 13.7282 31.7915 13.6364 31.4219 13.2691C31.1447 12.9936 30.96 12.7181 30.6828 12.4427C30.1284 11.708 29.2969 11.6162 28.6501 12.259C28.1882 12.7181 27.7262 13.3609 27.449 14.0037C26.8023 15.9321 26.3403 17.9522 25.6935 19.9724L30.7752 20.707L30.4056 22.0844L25.5088 21.3498Z" fill="white"/>
<defs>
<linearGradient id="paint0_linear_251_22" x1="23.5" y1="0" x2="23.5" y2="47" gradientUnits="userSpaceOnUse">
<stop stop-color="#0090FF"/>
<stop offset="1" stop-color="#0073CB"/>
</linearGradient>
</defs>
</svg>
